<svg enable-background="new 0 0 2551.18 1700.79" height="1700" viewBox="0 0 2550.0001 1700" width="2550" xmlns="http://www.w3.org/2000/svg"><path d="m0 0h2550v1700h-2550z" fill="#fff" stroke-width=".999537"/><g fill-rule="evenodd"><g transform="matrix(.86651481 -.50073883 .50028256 .86730509 -586.77826 -207.78488)"><path d="m1482.9091 1844.5007a399.40979 399.40979 0 0 1 -399.4098 399.4098 399.40979 399.40979 0 0 1 -399.40982-399.4098 399.40979 399.40979 0 0 1 399.40982-399.4098 399.40979 399.40979 0 0 1 399.4098 399.4098z" fill="#da251d"/><path d="m1279.2812 1643.9668a200 199.99998 0 0 0 -95.2812 26.7383 200 199.99998 0 0 0 -100 173.2051 200 199.99998 0 0 1 -100 173.205 200 199.99998 0 0 1 -200 0 200 199.99998 0 0 1 -99.77734-163.7695 400 399.99997 0 0 0 199.77734 336.9746 400 399.99997 0 0 0 400 0 400 399.99997 0 0 0 200-346.4101 200 199.99998 0 0 0 -100-173.2051 200 199.99998 0 0 0 -104.7188-26.7383z" fill="#29166f"/></g><path d="m664.74368 1479.549 51.60658-36.1353-84.31575-120.4154-51.60657 36.1353zm-108.40595-154.8197 51.60658-36.1353-84.31574-120.4154-51.60658 36.1352zm22.39495 215.0452 51.60658-36.1353-84.31574-120.4154-51.60658 36.1353zm-108.40594-154.8197 51.60658-36.1353-84.31574-120.4154-51.60658 36.1353zm22.39495 215.0452 51.60658-36.1352-84.31574-120.4155-51.60658 36.1353zm-108.40594-154.8197 51.60657-36.1353-84.31574-120.4154-51.60658 36.1353z"/><path d="m816.6469-597.37374 168 290.9845-54.5597 31.4999-167.9999-290.9845zm-71.9923 211.3057 54.5596-31.5-73.5-127.3058-54.5596 31.5zm94.5 163.6788 54.5596-31.5-73.5-127.3058-54.5596 31.50003zm-204.3731-269.9846 168.0001 290.9846-54.5597 31.4999-168-290.9845z" transform="matrix(-.9961947 -.08715575 -.08715575 .9961947 2787.8462 1834.4547)"/><path d="m2250 375.23515-192.7216-275.2351-51.6066 36.1353 192.7216 275.2351zm-137.6175 96.3608-192.7215-275.235 51.6066-36.1353 192.7216 275.235zm-86.011 60.2255-192.7216-275.235 51.6066-36.1353 192.7216 275.235z"/><path d="m793.65053 524.52853 54.5596 31.5-73.5 127.30574-54.5596-31.5zm94.5-163.6788 54.5596 31.5-73.5 127.30574-54.5596-31.5zm87.36534 268.6788 54.55963 31.5-73.50003 127.30574-54.5596-31.5zm94.50003-163.6788 54.5596 31.5-73.5 127.30574-54.55963-31.5zm-204.37311 269.98457 168.00001-290.98452-54.55968-31.49994-167.99993 290.98446z" transform="matrix(.99619469 .08715574 -.08715574 .99619469 -360.599005 -336.883937)"/></g></svg>